# AST/ASF file generated using VICON BodyLanguage
# -----------------------------------------------
:version 1.10
:name VICON
:units
  mass 1.0
  length 0.45
  angle deg
:documentation
   .ast/.asf automatically generated from VICON data using
   VICON BodyBuilder and BodyLanguage model FoxedUp or BRILLIANT.MOD
:root
   order TX TY TZ RX RY RZ
   axis XYZ
   position 0 0 0  
   orientation 0 0 0 
:bonedata
  begin
     id 1 
     name lhipjoint
     direction 0.567149 -0.783011 0.255413 
     length 2.28399 
     axis 0 0 0  XYZ
  end
  begin
     id 2 
     name lfemur
     direction 0.34202 -0.939693 0  
     length 7.34031  
     axis 0 0 20  XYZ
    dof rx ry rz
    limits (-160.0 20.0)
           (-70.0 70.0)
           (-60.0 70.0)
  end
  begin
     id 3 
     name ltibia
     direction 0.34202 -0.939693 0   
     length 6.9833   
     axis 0 0 20   XYZ
    dof rx
    limits (-10.0 170.0)
  end
  begin
     id 4 
     name lfoot
     direction 0.136498 -0.375025 0.91691   
     length 2.33665   
     axis -90 7.62852e-016 20   XYZ
    dof rx rz
    limits (-45.0 90.0)
           (-70.0 20.0)
  end
  begin
     id 5 
     name ltoes
     direction 1.5367e-011 -4.21617e-011 1   
     length 1.15039   
     axis -90 7.62852e-016 20   XYZ
    dof rx
    limits (-90.0 20.0)
  end
  begin
     id 6 
     name rhipjoint
     direction -0.602854 -0.758518 0.247423   
     length 2.35775  
     axis 0 0 0  XYZ 
  end
  begin
     id 7 
     name rfemur
     direction -0.34202 -0.939693 0   
     length 7.43932   
     axis 0 0 -20   XYZ
    dof rx ry rz
    limits (-160.0 20.0)
           (-70.0 70.0)
           (-70.0 60.0)
  end
  begin
     id 8 
     name rtibia
     direction -0.34202 -0.939693 0   
     length 7.11893   
     axis 0 0 -20   XYZ
    dof rx
    limits (-10.0 170.0)
 end
 begin
     id 9 
     name rfoot
     direction -0.131771 -0.362037 0.922803   
     length 2.53019  
     axis -90 -7.62852e-016 -20   XYZ
    dof rx rz
    limits (-45.0 90.0)
           (-20.0 70.0)
  end
  begin
     id 10 
     name rtoes
     direction -1.53733e-011 -4.21932e-011 1   
     length 1.24596   
     axis -90 -7.62852e-016 -20   XYZ
    dof rx
    limits (-90.0 20.0)
  end
  begin
     id 11 
     name lowerback
     direction 0.0235427 0.999023 -0.0374125   
     length 2.21768   
     axis 0 0 0   XYZ
    dof rx ry rz
    limits (-20.0 45.0)
           (-30.0 30.0)
           (-30.0 30.0)
  end
  begin
     id 12 
     name upperback
     direction 0.0302156 0.996818 -0.073759   
     length 2.20352   
     axis 0 0 0   XYZ
    dof rx ry rz
    limits (-20.0 45.0)
           (-30.0 30.0)
           (-30.0 30.0)
  end
  begin
     id 13 
     name thorax
     direction 0.0187169 0.998235 -0.0563532   
     length 2.22103   
     axis 0 0 0   XYZ
    dof rx ry rz
    limits (-20.0 45.0)
           (-30.0 30.0)
           (-30.0 30.0)
  end
  begin
     id 14 
     name lowerneck
     direction -0.119528 0.987423 0.103481   
     length 1.72948   
     axis 0 0 0   XYZ
    dof rx ry rz
    limits (-20.0 45.0)
           (-30.0 30.0)
           (-30.0 30.0)
  end
  begin
     id 15 
     name upperneck
     direction 0.248049 0.963095 -0.104496   
     length 1.74979   
     axis 0 0 0   XYZ
    dof rx ry rz
    limits (-20.0 45.0)
           (-30.0 30.0)
           (-30.0 30.0)
  end
  begin
     id 16
     name head
     direction 0.0903589 0.994284 -0.056876  
     length 1.78268  
     axis 0 0 0   XYZ
    dof rx ry rz
    limits (-20.0 45.0)
           (-30.0 30.0)
           (-30.0 30.0)
  end
  begin
     id 17 
     name lclavicle
     direction 0.946008 0.242039 -0.215608  
     length 3.80783  
     axis 0 0 0   XYZ
    dof ry rz
    limits (-20.0 10.0)
           (0.0 20.0)
  end
  begin
     id 18 
     name lhumerus
     direction 1 -4.48991e-011 -2.25695e-027   
     length 4.83125   
     axis 180 -30 -90   XYZ
    dof rx ry rz
    limits (-60.0 90.0)
           (-90.0 90.0)
           (-90.0 90.0)
  end
  begin
     id 19
     name lradius
     direction 0.999991 0.00366712 -0.00211721   
     length 3.00391   
     axis 180 -30 -90   XYZ
    dof rx
    limits (-10.0 170.0)
  end
  begin
     id 20
     name lwrist
     direction 0.999991 0.00393016 -0.00141978   
     length 1.50195   
     axis -1.00488e-014 90 90   XYZ
    dof ry
    limits (-180.0 0.0)
 end
  begin
     id 21 
     name lhand
     direction 1 -4.49123e-011 2.72098e-026   
     length 1.2717   
     axis -1.73687e-014 90 90   XYZ
    dof rx rz
    limits (-90.0 90.0)
           (-45.0 45.0)
  end
  begin
     id 22 
     name lfingers
     direction 1 -4.48678e-011 5.4479e-026   
     length 1.02528   
     axis -3.47372e-014 90 90   XYZ
    dof rx
    limits (0.0 90.0)
  end
  begin
     id 23
     name lthumb
     direction 0.707107 -6.34851e-011 0.707107   
     length 1.4721   
     axis -90 45 -1.62303e-014   XYZ
    dof rx rz
    limits (-45.0 45.0)
           (-45.0 45.0)
  end
  begin
     id 24 
     name rclavicle
     direction -0.981723 0.189447 -0.0181673   
     length 3.74989  
     axis 0 0 0   XYZ 
    dof ry rz
    limits (-10.0 20.0)
           (-20.0 0.0)
  end
  begin
     id 25 
     name rhumerus
     direction -1 -4.48985e-011 2.38206e-027  
     length 4.61118   
     axis 180 30 90   XYZ
    dof rx ry rz
    limits (-90.0 60.0)
           (-90.0 90.0)
           (-90.0 90.0)
  end
  begin
     id 26 
     name rradius
     direction -1 -4.48977e-011 7.41019e-027   
     length 2.91491   
     axis 180 30 90   XYZ
    dof rx
    limits (-10.0 170.0)
  end
  begin
     id 27 
     name rwrist
     direction -1 -4.48549e-011 1.3624e-026   
     length 1.45745   
     axis -1.00488e-014 -90 -90   XYZ
    dof ry
    limits (-180.0 0.0)
  end
  begin
     id 28
     name rhand
     direction -1 -4.49107e-011 2.72109e-026   
     length 1.30769   
     axis -1.73687e-014 -90 -90   XYZ
    dof rx rz
    limits (-90.0 90.0)
           (-45.0 45.0)
  end
  begin
     id 29
     name rfingers
     direction -1 -4.48919e-011 5.44468e-026   
     length 1.05429   
     axis -3.47372e-014 -90 -90   XYZ
    dof rx
    limits (0.0 90.0)
  end
  begin
     id 30
     name rthumb
     direction -0.707107 -6.35315e-011 0.707107   
     length 1.51376   
     axis -90 -45 1.62303e-014   XYZ
    dof rx rz
    limits (-45.0 45.0)
           (-45.0 45.0)
  end
:hierarchy
  begin
    root lhipjoint rhipjoint lowerback
    lhipjoint lfemur
    lfemur ltibia
    ltibia lfoot
    lfoot ltoes
    rhipjoint rfemur
    rfemur rtibia
    rtibia rfoot
    rfoot rtoes
    lowerback upperback
    upperback thorax
    thorax lowerneck lclavicle rclavicle
    lowerneck upperneck
    upperneck head
    lclavicle lhumerus
    lhumerus lradius
    lradius lwrist
    lwrist lhand lthumb
    lhand lfingers
    rclavicle rhumerus
    rhumerus rradius
    rradius rwrist
    rwrist rhand rthumb
    rhand rfingers
  end

#!OML:ASF X:\für Bonn\!DataBase\2005_08_11_Bastian_Final\c3d\Bastian.ASF
:FULLY-SPECIFIED
:DEGREES
16
root -1.25309 16.6923 2.21222 167.387 -2.12512 -173.279
lowerback 14.8697 -0.729857 1.90195
upperback 5.35302 -1.39367 1.86325
thorax -2.65901 -1.0212 1.12494
lowerneck -6.45607 -5.93116 -4.60957
upperneck -3.56622 -7.23132 9.38967
head 0.557181 -3.3493 3.64785
rclavicle -4.74598e-015 -1.15295e-014
rhumerus 76.5051 18.4767 15.7846
rradius 40.5425
rwrist -68.0044
rhand -47.5238 -9.50327
rfingers 7.12502
rthumb -20.2108 -38.4718
lclavicle -4.74598e-015 -1.15295e-014
lhumerus 77.0419 -23.7705 -37.3616
lradius 31.3285
lwrist 34.2037
lhand -39.8241 20.9786
lfingers 7.12502
lthumb -12.7982 50.5663
rfemur -7.34591 -7.94436 29.0183
rtibia 47.8429
rfoot -23.4337 -6.00447
rtoes -0.108579
lfemur -7.62784 -0.716628 -13.0698
ltibia 49.0255
lfoot -24.0813 -1.15144
ltoes -12.9914
17
root -1.25428 16.6283 2.21994 167.324 -2.16515 -173.171
lowerback 15.1921 -0.744949 2.01148
upperback 5.39959 -1.40953 1.90314
thorax -2.78244 -1.03847 1.11634
lowerneck -6.54834 -5.95941 -4.52977
upperneck -3.60165 -7.26819 9.26549
head 0.555035 -3.36711 3.58609
rclavicle 6.80837e-015 -1.98785e-015
rhumerus 76.3442 18.4263 15.4875
rradius 40.5077
rwrist -67.9084
rhand -47.4822 -9.65198
rfingers 7.12502
rthumb -20.1708 -38.6248
lclavicle 6.80837e-015 -1.98785e-015
lhumerus 76.9446 -23.7726 -37.5412
lradius 31.2692
lwrist 33.9945
lhand -40.007 21.132
lfingers 7.12502
lthumb -12.9745 50.7086
rfemur -7.89116 -8.46332 29.0011
rtibia 48.942
rfoot -23.9185 -5.7855
rtoes -0.130364
lfemur -8.26003 -0.659216 -12.9407
ltibia 50.325
lfoot -24.6887 -1.24515
ltoes -12.8554
18
root -1.25574 16.5591 2.22781 167.24 -2.19998 -173.058
lowerback 15.5586 -0.763755 2.15603
upperback 5.43411 -1.42225 1.91357
thorax -2.94302 -1.05345 1.05833
lowerneck -6.59146 -5.99573 -4.38978
upperneck -3.66487 -7.31821 9.13503
head 0.533222 -3.39335 3.51223
rclavicle -1.56791e-014 1.23246e-014
rhumerus 76.1629 18.3939 15.2142
rradius 40.4579
rwrist -67.8334
rhand -47.4412 -9.75453
rfingers 7.12502
rthumb -20.1314 -38.7315
lclavicle -1.56791e-014 1.23246e-014
lhumerus 76.8374 -23.7992 -37.6157
lradius 31.1705
lwrist 33.5395
lhand -40.0827 21.2892
lfingers 7.12502
lthumb -13.0475 50.8612
rfemur -8.44397 -8.91497 29.0032
rtibia 50.1093
rfoot -24.4663 -5.62247
rtoes -0.1495
lfemur -8.90852 -0.615585 -12.8033
ltibia 51.7051
lfoot -25.3243 -1.35599
ltoes -12.766
19
root -1.25814 16.4836 2.23475 167.163 -2.24044 -172.966
lowerback 15.9279 -0.778224 2.2599
upperback 5.44861 -1.43032 1.95081
thorax -3.12454 -1.0659 1.05131
lowerneck -6.63842 -6.03009 -4.29237
upperneck -3.69512 -7.36872 8.97813
head 0.523214 -3.42064 3.43694
rclavicle 3.18055e-015 1.59028e-014
rhumerus 75.9917 18.3889 14.8736
rradius 40.3743
rwrist -67.6256
rhand -47.3452 -9.91779
rfingers 7.12502
rthumb -20.0391 -38.9044
lclavicle 3.18055e-015 1.59028e-014
lhumerus 76.7608 -23.8583 -37.6873
lradius 31.0661
lwrist 33.1498
lhand -40.1321 21.4156
lfingers 7.12502
lthumb -13.0951 50.9844
rfemur -9.03711 -9.30066 29.0039
rtibia 51.3647
rfoot -25.0304 -5.57068
rtoes -0.227998
lfemur -9.59165 -0.581944 -12.697
ltibia 53.1611
lfoot -25.981 -1.44827
ltoes -12.6364
